<svg width="50" height="50" viewBox="0 0 50 50" fill="none" xmlns="http://www.w3.org/2000/svg">
<g clip-path="url(#clip0_211_17)">
<path d="M45 0H5C2.23858 0 0 2.23858 0 5V45C0 47.7614 2.23858 50 5 50H45C47.7614 50 50 47.7614 50 45V5C50 2.23858 47.7614 0 45 0Z" fill="#DEEDFA"/>
<path d="M36.25 19.5V35.5C36.25 35.9142 35.9142 36.25 35.5 36.25H19.5C19.0858 36.25 18.75 35.9142 18.75 35.5V19.5C18.75 19.0858 19.0858 18.75 19.5 18.75H35.5C35.9142 18.75 36.25 19.0858 36.25 19.5Z" stroke="#3655C6" stroke-width="1.5" stroke-linecap="round" stroke-linejoin="round"/>
<path d="M32.5 15H15.75C15.3358 15 15 15.3358 15 15.75V32.5" stroke="#3655C6" stroke-width="1.5" stroke-linecap="round" stroke-linejoin="round"/>
<path d="M18.75 31L25.5555 28.75L36.25 32.5" stroke="#3655C6" stroke-width="1.5" stroke-linecap="round" stroke-linejoin="round"/>
<path d="M30.625 26.25C29.5895 26.25 28.75 25.4105 28.75 24.375C28.75 23.3395 29.5895 22.5 30.625 22.5C31.6605 22.5 32.5 23.3395 32.5 24.375C32.5 25.4105 31.6605 26.25 30.625 26.25Z" stroke="#C8A014" stroke-width="1.5" stroke-linecap="round" stroke-linejoin="round"/>
</g>
<defs>
<clipPath id="clip0_211_17">
<rect width="50" height="50" fill="white"/>
</clipPath>
</defs>
</svg>
