<svg width="50" height="50" viewBox="0 0 50 50" fill="none" xmlns="http://www.w3.org/2000/svg">
<g clip-path="url(#clip0_11_2)">
<path d="M45 0H5C2.23858 0 0 2.23858 0 5V45C0 47.7614 2.23858 50 5 50H45C47.7614 50 50 47.7614 50 45V5C50 2.23858 47.7614 0 45 0Z" fill="#E9E9E9"/>
<g clip-path="url(#clip1_11_2)">
<path d="M26.58 24.8699L28.91 27.5499L32.06 29.5499L32.61 24.8799L32.06 20.3199L28.85 22.0899L26.58 24.8699Z" fill="#00832D"/>
<path d="M13 29.13V33.13C13 33.5676 13.1738 33.9873 13.4833 34.2967C13.7927 34.6061 14.2124 34.78 14.65 34.78H18.65L19.47 31.78L18.65 29.17L15.89 28.3L13 29.13Z" fill="#0066DA"/>
<path d="M18.62 15L13 20.62L15.89 21.45L18.62 20.62L19.43 18L18.62 15Z" fill="#E94235"/>
<path d="M18.62 20.62H13V29.13H18.62V20.62Z" fill="#2684FC"/>
<path d="M35.65 17.38L32.06 20.38V29.61L35.67 32.61C35.7972 32.7131 35.9523 32.7758 36.1154 32.79C36.2785 32.8042 36.4421 32.7692 36.5852 32.6896C36.7283 32.61 36.8442 32.4894 36.9182 32.3433C36.9921 32.1973 37.0206 32.0324 37 31.87V18C36.9951 17.8457 36.9472 17.696 36.8619 17.5674C36.7765 17.4389 36.657 17.3367 36.5168 17.2723C36.3766 17.2079 36.2212 17.1838 36.0681 17.2029C35.915 17.2219 35.7702 17.2832 35.65 17.38ZM26.58 24.87V29.13H18.58V34.75H30.38C30.8159 34.7473 31.233 34.5723 31.5403 34.2632C31.8475 33.954 32.02 33.5358 32.02 33.1V29.56L26.58 24.87Z" fill="#00AC47"/>
<path d="M30.42 15H18.62V20.62H26.62V24.87L32.1 20.33V16.65C32.1 16.4308 32.0564 16.2138 31.9716 16.0116C31.8868 15.8094 31.7626 15.6262 31.6062 15.4726C31.4498 15.319 31.2643 15.198 31.0606 15.1169C30.857 15.0358 30.6392 14.996 30.42 15Z" fill="#FFBA00"/>
</g>
</g>
<defs>
<clipPath id="clip0_11_2">
<rect width="50" height="50" fill="white"/>
</clipPath>
<clipPath id="clip1_11_2">
<rect width="24" height="24" fill="white" transform="translate(13 13)"/>
</clipPath>
</defs>
</svg>
