<svg width="50" height="50" viewBox="0 0 50 50" fill="none" xmlns="http://www.w3.org/2000/svg">
<g clip-path="url(#clip0_11_2)">
<path d="M45 0H5C2.23858 0 0 2.23858 0 5V45C0 47.7614 2.23858 50 5 50H45C47.7614 50 50 47.7614 50 45V5C50 2.23858 47.7614 0 45 0Z" fill="#EAEBFF"/>
<g clip-path="url(#clip1_11_2)">
<path d="M33.52 28.21L31.72 26.4V21.94C31.7439 20.2838 31.1679 18.6749 30.0981 17.4104C29.0284 16.1458 27.5372 15.311 25.9 15.06C24.9498 14.9349 23.9839 15.0138 23.0666 15.2916C22.1493 15.5694 21.3019 16.0395 20.5807 16.6708C19.8596 17.302 19.2813 18.0798 18.8846 18.9522C18.4879 19.8246 18.2817 20.7716 18.28 21.73V26.4L16.48 28.21C16.2539 28.4399 16.1006 28.7313 16.0392 29.0478C15.9778 29.3643 16.0111 29.6919 16.1349 29.9897C16.2587 30.2874 16.4674 30.542 16.7351 30.7217C17.0028 30.9014 17.3176 30.9982 17.64 31H21V31.34C21.0467 32.3552 21.4939 33.3105 22.2437 33.9965C22.9935 34.6826 23.9847 35.0434 25 35C26.0153 35.0434 27.0065 34.6826 27.7563 33.9965C28.506 33.3105 28.9533 32.3552 29 31.34V31H32.36C32.6824 30.9982 32.9971 30.9014 33.2648 30.7217C33.5325 30.542 33.7413 30.2874 33.8651 29.9897C33.9889 29.6919 34.0222 29.3643 33.9608 29.0478C33.8994 28.7313 33.7461 28.4399 33.52 28.21ZM27 31.34C26.9445 31.821 26.7056 32.2621 26.3331 32.5713C25.9605 32.8805 25.483 33.0341 25 33C24.517 33.0341 24.0395 32.8805 23.6669 32.5713C23.2944 32.2621 23.0555 31.821 23 31.34V31H27V31.34ZM18.51 29L19.69 27.82C19.8772 27.634 20.0257 27.4127 20.1269 27.169C20.2282 26.9253 20.2802 26.6639 20.28 26.4V21.73C20.2805 21.0554 20.4254 20.3887 20.7048 19.7747C20.9842 19.1607 21.3917 18.6136 21.9 18.17C22.4014 17.7157 22.9956 17.3758 23.6413 17.1737C24.2871 16.9717 24.9691 16.9125 25.64 17C26.7965 17.1878 27.8462 17.787 28.5959 18.6874C29.3456 19.5878 29.7448 20.7287 29.72 21.9V26.4C29.7185 26.6632 29.7689 26.9242 29.8685 27.1678C29.968 27.4115 30.1146 27.6331 30.3 27.82L31.49 29H18.51Z" fill="#A07CF4"/>
</g>
</g>
<defs>
<clipPath id="clip0_11_2">
<rect width="50" height="50" fill="white"/>
</clipPath>
<clipPath id="clip1_11_2">
<rect width="24" height="24" fill="white" transform="translate(13 13)"/>
</clipPath>
</defs>
</svg>
