<svg width="36" height="36" viewBox="0 0 36 36" fill="none" xmlns="http://www.w3.org/2000/svg">
<circle cx="18" cy="18" r="18" fill="#E9BB19"/>
<g clip-path="url(#clip0_180_17)">
<path d="M10.7099 9.29C10.6167 9.19676 10.506 9.1228 10.3842 9.07234C10.2624 9.02188 10.1318 8.99591 9.99994 8.99591C9.86808 8.99591 9.73751 9.02188 9.61569 9.07234C9.49387 9.1228 9.38318 9.19676 9.28994 9.29C9.10164 9.47831 8.99585 9.7337 8.99585 10C8.99585 10.2663 9.10164 10.5217 9.28994 10.71L14.9199 16.34C14.5637 17.0026 14.4305 17.7624 14.54 18.5067C14.6495 19.2509 14.9959 19.9401 15.5279 20.4721C16.0598 21.004 16.749 21.3504 17.4933 21.4599C18.2376 21.5694 18.9973 21.4362 19.6599 21.08L25.2899 26.71C25.3829 26.8037 25.4935 26.8781 25.6154 26.9289C25.7372 26.9797 25.8679 27.0058 25.9999 27.0058C26.132 27.0058 26.2627 26.9797 26.3845 26.9289C26.5064 26.8781 26.617 26.8037 26.7099 26.71C26.8037 26.617 26.8781 26.5064 26.9288 26.3846C26.9796 26.2627 27.0057 26.132 27.0057 26C27.0057 25.868 26.9796 25.7373 26.9288 25.6154C26.8781 25.4936 26.8037 25.383 26.7099 25.29L10.7099 9.29ZM17.9999 19.5C17.6021 19.5 17.2206 19.342 16.9393 19.0607C16.658 18.7794 16.4999 18.3978 16.4999 18V17.93L18.0599 19.49L17.9999 19.5Z" fill="black"/>
<path d="M18.2201 23C13.9201 23.1 11.1001 19.41 10.2201 18C10.8465 17.0007 11.5994 16.0865 12.4601 15.28L11.0001 13.87C9.87139 14.9335 8.90448 16.1564 8.13007 17.5C8.0423 17.652 7.99609 17.8245 7.99609 18C7.99609 18.1755 8.0423 18.348 8.13007 18.5C8.76007 19.59 12.1301 25 18.0201 25H18.2701C19.3776 24.9671 20.4708 24.7404 21.5001 24.33L19.9201 22.75C19.3644 22.8962 18.7943 22.98 18.2201 23Z" fill="black"/>
<path d="M27.87 17.5C27.23 16.39 23.7 10.82 17.73 11C16.6225 11.0328 15.5292 11.2596 14.5 11.67L16.08 13.25C16.6356 13.1038 17.2058 13.02 17.78 13C22.07 12.89 24.89 16.59 25.78 18C25.1381 19.0023 24.3682 19.9167 23.49 20.72L25 22.13C26.1428 21.0693 27.1234 19.8462 27.91 18.5C27.9918 18.3445 28.0311 18.1702 28.0241 17.9946C28.0171 17.8191 27.9639 17.6485 27.87 17.5Z" fill="black"/>
</g>
<defs>
<clipPath id="clip0_180_17">
<rect width="24" height="24" fill="white" transform="translate(6 6)"/>
</clipPath>
</defs>
</svg>
