<svg width="50" height="50" viewBox="0 0 50 50" fill="none" xmlns="http://www.w3.org/2000/svg">
<g clip-path="url(#clip0_11_2)">
<path d="M45 0H5C2.23858 0 0 2.23858 0 5V45C0 47.7614 2.23858 50 5 50H45C47.7614 50 50 47.7614 50 45V5C50 2.23858 47.7614 0 45 0Z" fill="#EDE9D8"/>
<g clip-path="url(#clip1_11_2)">
<path d="M31.5 16.3333H30.4167V15.25C30.4167 14.9626 30.3025 14.6871 30.0994 14.4839C29.8962 14.2808 29.6207 14.1666 29.3333 14.1666C29.046 14.1666 28.7705 14.2808 28.5673 14.4839C28.3641 14.6871 28.25 14.9626 28.25 15.25V16.3333H21.75V15.25C21.75 14.9626 21.6359 14.6871 21.4327 14.4839C21.2295 14.2808 20.954 14.1666 20.6667 14.1666C20.3793 14.1666 20.1038 14.2808 19.9006 14.4839C19.6975 14.6871 19.5833 14.9626 19.5833 15.25V16.3333H18.5C17.638 16.3333 16.8114 16.6757 16.2019 17.2852C15.5924 17.8947 15.25 18.7213 15.25 19.5833V32.5833C15.25 33.4452 15.5924 34.2719 16.2019 34.8814C16.8114 35.4909 17.638 35.8333 18.5 35.8333H31.5C32.362 35.8333 33.1886 35.4909 33.7981 34.8814C34.4076 34.2719 34.75 33.4452 34.75 32.5833V19.5833C34.75 18.7213 34.4076 17.8947 33.7981 17.2852C33.1886 16.6757 32.362 16.3333 31.5 16.3333ZM18.5 18.5H19.5833V19.5833C19.5833 19.8706 19.6975 20.1462 19.9006 20.3493C20.1038 20.5525 20.3793 20.6666 20.6667 20.6666C20.954 20.6666 21.2295 20.5525 21.4327 20.3493C21.6359 20.1462 21.75 19.8706 21.75 19.5833V18.5H28.25V19.5833C28.25 19.8706 28.3641 20.1462 28.5673 20.3493C28.7705 20.5525 29.046 20.6666 29.3333 20.6666C29.6207 20.6666 29.8962 20.5525 30.0994 20.3493C30.3025 20.1462 30.4167 19.8706 30.4167 19.5833V18.5H31.5C31.7873 18.5 32.0629 18.6141 32.266 18.8173C32.4692 19.0204 32.5833 19.296 32.5833 19.5833V23.9166H17.4167V19.5833C17.4167 19.296 17.5308 19.0204 17.734 18.8173C17.9371 18.6141 18.2127 18.5 18.5 18.5ZM31.5 33.6666H18.5C18.2127 33.6666 17.9371 33.5525 17.734 33.3493C17.5308 33.1462 17.4167 32.8706 17.4167 32.5833V26.0833H32.5833V32.5833C32.5833 32.8706 32.4692 33.1462 32.266 33.3493C32.0629 33.5525 31.7873 33.6666 31.5 33.6666Z" fill="#BEB492"/>
<path d="M20.6667 30.4167C21.265 30.4167 21.75 29.9316 21.75 29.3333C21.75 28.735 21.265 28.25 20.6667 28.25C20.0684 28.25 19.5833 28.735 19.5833 29.3333C19.5833 29.9316 20.0684 30.4167 20.6667 30.4167Z" fill="#9A906C"/>
<path d="M29.3333 28.25H25C24.7127 28.25 24.4371 28.3641 24.234 28.5673C24.0308 28.7705 23.9167 29.046 23.9167 29.3333C23.9167 29.6207 24.0308 29.8962 24.234 30.0994C24.4371 30.3025 24.7127 30.4167 25 30.4167H29.3333C29.6207 30.4167 29.8962 30.3025 30.0994 30.0994C30.3025 29.8962 30.4167 29.6207 30.4167 29.3333C30.4167 29.046 30.3025 28.7705 30.0994 28.5673C29.8962 28.3641 29.6207 28.25 29.3333 28.25Z" fill="#615B48"/>
</g>
</g>
<defs>
<clipPath id="clip0_11_2">
<rect width="50" height="50" fill="white"/>
</clipPath>
<clipPath id="clip1_11_2">
<rect width="26" height="26" fill="white" transform="translate(12 12)"/>
</clipPath>
</defs>
</svg>
