<svg width="50" height="50" viewBox="0 0 50 50" fill="none" xmlns="http://www.w3.org/2000/svg">
<g clip-path="url(#clip0_11_2)">
<path d="M45 0H5C2.23858 0 0 2.23858 0 5V45C0 47.7614 2.23858 50 5 50H45C47.7614 50 50 47.7614 50 45V5C50 2.23858 47.7614 0 45 0Z" fill="#E5F4FF"/>
<path fill-rule="evenodd" clip-rule="evenodd" d="M16.05 23.0151C15.7918 22.3071 15.9467 21.4823 16.5147 20.9143L22.8787 14.5503C24.0503 13.3787 25.9498 13.3787 27.1213 14.5503L33.4853 20.9143C34.0534 21.4824 34.2083 22.3073 33.9499 23.0154C33.9824 23.1139 33.9999 23.2191 33.9999 23.3285V34.3285C33.9999 35.4331 33.1045 36.3285 31.9999 36.3285H17.9999C16.8954 36.3285 15.9999 35.4331 15.9999 34.3285V23.3285C15.9999 23.219 16.0175 23.1137 16.05 23.0151ZM17.929 22.3285L24.2929 15.9645C24.6834 15.574 25.3166 15.574 25.7071 15.9645L32.0711 22.3285H32.0408V22.3588L25.7071 28.6924C25.3166 29.083 24.6834 29.083 24.2929 28.6924L17.929 22.3285ZM31.9999 25.2281L27.1213 30.1067C25.9498 31.2782 24.0503 31.2782 22.8787 30.1067L17.9999 25.2279V34.3285H31.9999V25.2281Z" fill="#0B99FF"/>
</g>
<defs>
<clipPath id="clip0_11_2">
<rect width="50" height="50" fill="white"/>
</clipPath>
</defs>
</svg>
